<svg width="19" height="18" viewBox="0 0 19 18" fill="none" xmlns="http://www.w3.org/2000/svg">
<path d="M17.8125 2.96862H13.0625V1.8037C13.0625 1.47802 12.9852 1.17739 12.8306 0.901818C12.6759 0.626244 12.4595 0.407037 12.1812 0.244198C11.9028 0.0813586 11.6029 -6.10352e-05 11.2812 -6.10352e-05H7.71875C7.22396 -6.10352e-05 6.80339 0.178436 6.45703 0.53543C6.11068 0.892423 5.9375 1.31518 5.9375 1.8037V2.96862H1.1875C0.865885 2.96862 0.587565 3.08762 0.352539 3.32562C0.117513 3.56361 0 3.84545 0 4.17113V16.7974C0 17.1231 0.117513 17.4049 0.352539 17.6429C0.587565 17.8809 0.865885 17.9999 1.1875 17.9999H17.8125C18.1341 17.9999 18.4124 17.8809 18.6475 17.6429C18.8825 17.4049 19 17.1231 19 16.7974V4.17113C19 3.95819 18.9474 3.7609 18.8423 3.57927C18.7371 3.39764 18.5918 3.25046 18.4062 3.13773C18.2207 3.02499 18.0228 2.96862 17.8125 2.96862ZM7.125 1.8037C7.125 1.64086 7.18376 1.49994 7.30127 1.38094C7.41878 1.26194 7.55794 1.20244 7.71875 1.20244H11.2812C11.4544 1.20244 11.5967 1.26194 11.708 1.38094C11.8193 1.49994 11.875 1.64086 11.875 1.8037V2.96862H7.125V1.8037ZM1.1875 4.17113H17.8125V8.39869H11.2812V7.77864C11.2812 7.5657 11.2256 7.36528 11.1143 7.17739C11.0029 6.9895 10.8576 6.84232 10.6782 6.73585C10.4989 6.62938 10.304 6.57614 10.0938 6.57614H8.90625C8.57227 6.57614 8.29085 6.69514 8.06201 6.93313C7.83317 7.17113 7.71875 7.45297 7.71875 7.77864V8.39869H1.1875V4.17113ZM10.0938 10.8037H8.90625V7.77864H10.0938V10.8037ZM1.1875 16.7974V9.60119H7.71875V10.8037C7.71875 11.1419 7.83317 11.4269 8.06201 11.6586C8.29085 11.8903 8.57227 12.0062 8.90625 12.0062H10.0938C10.304 12.0062 10.4989 11.953 10.6782 11.8465C10.8576 11.74 11.0029 11.5928 11.1143 11.4049C11.2256 11.2171 11.2812 11.0166 11.2812 10.8037V9.60119H17.8125V16.7974H1.1875Z" fill="#6D6F71"/>
</svg>
