<svg width="19" height="14" viewBox="0 0 19 14" fill="none" xmlns="http://www.w3.org/2000/svg">
<path d="M0.438669 1.34271C0.389161 1.29497 0.345841 1.24126 0.30871 1.18159C0.271578 1.12191 0.246824 1.05925 0.234447 0.993606C0.22207 0.927963 0.215881 0.853367 0.215881 0.769821C0.215881 0.543052 0.290144 0.358056 0.438669 0.214834C0.587195 0.0716113 0.77904 0 1.01421 0H17.9647C18.1998 0 18.3917 0.0716113 18.5402 0.214834C18.6887 0.358056 18.763 0.543052 18.763 0.769821C18.763 0.99659 18.6887 1.18457 18.5402 1.33376C18.3917 1.48295 18.1998 1.55754 17.9647 1.55754H1.01421C0.77904 1.55754 0.587195 1.48593 0.438669 1.34271ZM18.5402 6.44501C18.6887 6.58824 18.763 6.77323 18.763 7C18.763 7.22677 18.6887 7.41177 18.5402 7.55499C18.3917 7.69821 18.1998 7.76982 17.9647 7.76982H1.01421C0.77904 7.76982 0.587195 7.69821 0.438669 7.55499C0.413915 7.53112 0.389161 7.50128 0.364407 7.46547C0.339652 7.42967 0.317993 7.39386 0.299427 7.35806C0.280861 7.32225 0.26539 7.28645 0.253013 7.25064C0.240636 7.21483 0.231353 7.17604 0.225164 7.13427C0.218976 7.0925 0.215881 7.04774 0.215881 7C0.215881 6.77323 0.290144 6.58824 0.438669 6.44501C0.587195 6.30179 0.77904 6.23018 1.01421 6.23018H17.9647C18.1998 6.23018 18.3917 6.30179 18.5402 6.44501ZM18.5402 12.6573C18.6887 12.8005 18.763 12.9855 18.763 13.2123C18.763 13.439 18.6887 13.627 18.5402 13.7762C18.3917 13.9254 18.1998 14 17.9647 14H1.01421C0.77904 14 0.587195 13.9284 0.438669 13.7852C0.413915 13.7613 0.392255 13.7344 0.37369 13.7046L0.317993 13.6151L0.271578 13.5256L0.234447 13.4271L0.215881 13.3286V13.2123C0.215881 12.9855 0.290144 12.8005 0.438669 12.6573C0.587195 12.5141 0.77904 12.4425 1.01421 12.4425H17.9647C18.1875 12.4425 18.3793 12.5141 18.5402 12.6573Z" fill="white"/>
</svg>
