<svg width="12" height="8" viewBox="0 0 12 8" fill="none" xmlns="http://www.w3.org/2000/svg">
<path d="M0.09375 1.09038C0.09375 0.975801 0.132812 0.877587 0.210938 0.795741C0.289062 0.713896 0.382812 0.672974 0.492188 0.672974C0.601562 0.672974 0.695312 0.713896 0.773438 0.795741L6.07031 6.34485L11.2852 0.881679C11.3633 0.799834 11.457 0.758911 11.5664 0.758911C11.6758 0.758911 11.7695 0.799834 11.8477 0.881679C11.9258 0.963524 11.9648 1.06174 11.9648 1.17632C11.9648 1.29091 11.9258 1.38912 11.8477 1.47096L6.35156 7.22878C6.27344 7.31062 6.17969 7.35154 6.07031 7.35154C5.96094 7.35154 5.86719 7.31062 5.78906 7.22878L0.210938 1.3973C0.195312 1.38093 0.181641 1.36252 0.169922 1.34206C0.158203 1.3216 0.148438 1.30114 0.140625 1.28067L0.117188 1.21929L0.0996094 1.15791L0.09375 1.09038Z" fill="white"/>
</svg>
